<svg width="128" height="128" viewBox="0 0 128 128" fill="none" xmlns="http://www.w3.org/2000/svg">
<g clip-path="url(#clip0_127_19)">
<path fill-rule="evenodd" clip-rule="evenodd" d="M64.0119 11.2393L11.6514 46.3344L33.4449 60.486L59.4838 42.9378L49.1551 36.1532L63.3027 26.6745L94.0025 47.0469L43.6375 80.8591L54.5313 88.074L117.204 46.3397L117.062 46.1983L64.0119 11.2393ZM116.227 11.2539L94.4408 25.6844L105.334 33.0407L116.227 25.6844V11.2539ZM11.2922 116.762L33.0791 102.332L22.1859 94.9749L11.2922 102.332V116.762Z" fill="#727272"/>
<path fill-rule="evenodd" clip-rule="evenodd" d="M63.988 116.732L116.348 81.6361L94.555 67.4845L68.5169 85.0328L78.8442 91.8174L64.6972 101.297L33.9974 80.9236L84.3618 47.1121L73.4687 39.8965L10.7955 81.6308L10.9369 81.7736L63.988 116.732Z" fill="#727272"/>
</g>
<defs>
<clipPath id="clip0_127_19">
<rect width="128" height="128" fill="white"/>
</clipPath>
</defs>
</svg>
